<svg xmlns="http://www.w3.org/2000/svg" xmlns:xlink="http://www.w3.org/1999/xlink" width="364" zoomAndPan="magnify" viewBox="0 0 273 161.999997" height="216" preserveAspectRatio="xMidYMid meet" version="1.0"><defs><g/><clipPath id="d2cf1b8679"><path d="M 22 86 L 45 86 L 45 132 L 22 132 Z M 22 86 " clip-rule="nonzero"/></clipPath><clipPath id="d888c2c6bc"><path d="M 22.96875 131.410156 L -0.0195312 108.425781 L 21.992188 86.414062 L 44.980469 109.402344 Z M 22.96875 131.410156 " clip-rule="nonzero"/></clipPath><clipPath id="5d57d6dc29"><path d="M 22 86.421875 L 44.980469 109.402344 L 22.96875 131.410156 Z M 22 86.421875 " clip-rule="nonzero"/></clipPath><clipPath id="e36f26c4f5"><path d="M 0 0.398438 L 23 0.398438 L 23 45.519531 L 0 45.519531 Z M 0 0.398438 " clip-rule="nonzero"/></clipPath><clipPath id="4007f87e5e"><path d="M 0.96875 45.410156 L -22.019531 22.425781 L -0.0078125 0.414062 L 22.980469 23.402344 Z M 0.96875 45.410156 " clip-rule="nonzero"/></clipPath><clipPath id="6a2a98680f"><path d="M 0 0.421875 L 22.980469 23.402344 L 0.96875 45.410156 Z M 0 0.421875 " clip-rule="nonzero"/></clipPath><clipPath id="da4423c81d"><rect x="0" width="23" y="0" height="46"/></clipPath><clipPath id="c014c1974e"><path d="M 9.636719 59.652344 L 84.636719 59.652344 L 84.636719 121.902344 L 9.636719 121.902344 Z M 9.636719 59.652344 " clip-rule="nonzero"/></clipPath><clipPath id="06e1d3ebfa"><path d="M 9.636719 63.402344 L 9.636719 118.292969 C 9.636719 120.363281 11.316406 122.042969 13.386719 122.042969 L 81.074219 122.042969 C 83.144531 122.042969 84.824219 120.363281 84.824219 118.292969 L 84.824219 63.402344 C 84.824219 61.332031 83.144531 59.652344 81.074219 59.652344 L 13.386719 59.652344 C 11.316406 59.652344 9.636719 61.332031 9.636719 63.402344 Z M 9.636719 63.402344 " clip-rule="nonzero"/></clipPath><clipPath id="922abcf36a"><path d="M 27.089844 64.636719 L 79.589844 64.636719 L 79.589844 117.136719 L 27.089844 117.136719 Z M 27.089844 64.636719 " clip-rule="nonzero"/></clipPath><clipPath id="d5ef8e3541"><path d="M 53.199219 64.636719 C 38.78125 64.636719 27.089844 76.371094 27.089844 90.84375 C 27.089844 105.320312 38.78125 117.050781 53.199219 117.050781 C 67.621094 117.050781 79.308594 105.320312 79.308594 90.84375 C 79.308594 76.371094 67.621094 64.636719 53.199219 64.636719 Z M 53.199219 64.636719 " clip-rule="nonzero"/></clipPath><clipPath id="17a7ec8a7d"><path d="M 15.140625 77.359375 L 22.492188 77.359375 L 22.492188 117.074219 L 15.140625 117.074219 Z M 15.140625 77.359375 " clip-rule="nonzero"/></clipPath><clipPath id="274e9e88bc"><path d="M 18.816406 77.359375 C 20.847656 77.359375 22.492188 79.003906 22.492188 81.035156 L 22.492188 113.382812 C 22.492188 115.414062 20.847656 117.0625 18.816406 117.0625 C 16.789062 117.0625 15.140625 115.414062 15.140625 113.382812 L 15.140625 81.035156 C 15.140625 79.003906 16.789062 77.359375 18.816406 77.359375 Z M 18.816406 77.359375 " clip-rule="nonzero"/></clipPath><clipPath id="bd442d9c1d"><path d="M 0.140625 0.359375 L 7.492188 0.359375 L 7.492188 40.074219 L 0.140625 40.074219 Z M 0.140625 0.359375 " clip-rule="nonzero"/></clipPath><clipPath id="3ca0a038f1"><path d="M 3.816406 0.359375 C 5.847656 0.359375 7.492188 2.003906 7.492188 4.035156 L 7.492188 36.382812 C 7.492188 38.414062 5.847656 40.0625 3.816406 40.0625 C 1.789062 40.0625 0.140625 38.414062 0.140625 36.382812 L 0.140625 4.035156 C 0.140625 2.003906 1.789062 0.359375 3.816406 0.359375 Z M 3.816406 0.359375 " clip-rule="nonzero"/></clipPath><clipPath id="8088b6927c"><rect x="0" width="8" y="0" height="41"/></clipPath><clipPath id="efefaaf5c9"><path d="M 15.140625 64.636719 L 23.164062 64.636719 L 23.164062 72.65625 L 15.140625 72.65625 Z M 15.140625 64.636719 " clip-rule="nonzero"/></clipPath><clipPath id="0b24630056"><path d="M 19.152344 64.636719 C 16.9375 64.636719 15.140625 66.429688 15.140625 68.648438 C 15.140625 70.863281 16.9375 72.65625 19.152344 72.65625 C 21.367188 72.65625 23.164062 70.863281 23.164062 68.648438 C 23.164062 66.429688 21.367188 64.636719 19.152344 64.636719 Z M 19.152344 64.636719 " clip-rule="nonzero"/></clipPath><clipPath id="d454019fdb"><path d="M 0.140625 0.636719 L 8.164062 0.636719 L 8.164062 8.65625 L 0.140625 8.65625 Z M 0.140625 0.636719 " clip-rule="nonzero"/></clipPath><clipPath id="b02482a5e5"><path d="M 4.152344 0.636719 C 1.9375 0.636719 0.140625 2.429688 0.140625 4.648438 C 0.140625 6.863281 1.9375 8.65625 4.152344 8.65625 C 6.367188 8.65625 8.164062 6.863281 8.164062 4.648438 C 8.164062 2.429688 6.367188 0.636719 4.152344 0.636719 Z M 4.152344 0.636719 " clip-rule="nonzero"/></clipPath><clipPath id="672850578b"><rect x="0" width="9" y="0" height="9"/></clipPath></defs><g fill="#ffffff" fill-opacity="1"><g transform="translate(86.923114, 113.931201)"><g><path d="M 37.75 0 L 3.4375 0 L 3.4375 -4.71875 L 29.234375 -41.484375 L 5.0625 -41.484375 L 5.0625 -47.0625 L 37.1875 -47.0625 L 37.1875 -41.78125 L 11.71875 -5.53125 L 37.75 -5.53125 Z M 37.75 0 "/></g></g></g><g fill="#ffffff" fill-opacity="1"><g transform="translate(128.143815, 113.931201)"><g><path d="M 25.640625 -47.921875 C 29.640625 -47.921875 33.070312 -47.03125 35.9375 -45.25 C 38.800781 -43.476562 40.988281 -40.992188 42.5 -37.796875 C 44.019531 -34.609375 44.78125 -30.882812 44.78125 -26.625 L 44.78125 -22.203125 L 12.28125 -22.203125 C 12.363281 -16.671875 13.734375 -12.457031 16.390625 -9.5625 C 19.054688 -6.675781 22.8125 -5.234375 27.65625 -5.234375 C 30.632812 -5.234375 33.265625 -5.503906 35.546875 -6.046875 C 37.835938 -6.597656 40.21875 -7.398438 42.6875 -8.453125 L 42.6875 -2.1875 C 40.300781 -1.125 37.941406 -0.351562 35.609375 0.125 C 33.285156 0.613281 30.535156 0.859375 27.359375 0.859375 C 22.828125 0.859375 18.878906 -0.0625 15.515625 -1.90625 C 12.160156 -3.757812 9.550781 -6.472656 7.6875 -10.046875 C 5.820312 -13.628906 4.890625 -18.007812 4.890625 -23.1875 C 4.890625 -28.25 5.738281 -32.632812 7.4375 -36.34375 C 9.144531 -40.050781 11.550781 -42.90625 14.65625 -44.90625 C 17.769531 -46.914062 21.429688 -47.921875 25.640625 -47.921875 Z M 25.546875 -42.078125 C 21.742188 -42.078125 18.707031 -40.832031 16.4375 -38.34375 C 14.175781 -35.851562 12.832031 -32.375 12.40625 -27.90625 L 37.3125 -27.90625 C 37.28125 -30.71875 36.84375 -33.1875 36 -35.3125 C 35.15625 -37.445312 33.875 -39.109375 32.15625 -40.296875 C 30.4375 -41.484375 28.234375 -42.078125 25.546875 -42.078125 Z M 25.546875 -42.078125 "/></g></g></g><g fill="#ffffff" fill-opacity="1"><g transform="translate(177.52278, 113.931201)"><g><path d="M 29.796875 -47.921875 C 35.378906 -47.921875 39.601562 -46.550781 42.46875 -43.8125 C 45.332031 -41.082031 46.765625 -36.695312 46.765625 -30.65625 L 46.765625 0 L 39.71875 0 L 39.71875 -30.1875 C 39.71875 -34.101562 38.820312 -37.035156 37.03125 -38.984375 C 35.238281 -40.929688 32.5 -41.90625 28.8125 -41.90625 C 23.601562 -41.90625 19.9375 -40.429688 17.8125 -37.484375 C 15.695312 -34.535156 14.640625 -30.253906 14.640625 -24.640625 L 14.640625 0 L 7.515625 0 L 7.515625 -47.0625 L 13.265625 -47.0625 L 14.34375 -40.28125 L 14.734375 -40.28125 C 15.734375 -41.9375 17.003906 -43.328125 18.546875 -44.453125 C 20.097656 -45.585938 21.832031 -46.445312 23.75 -47.03125 C 25.664062 -47.625 27.679688 -47.921875 29.796875 -47.921875 Z M 29.796875 -47.921875 "/></g></g></g><g clip-path="url(#d2cf1b8679)"><g clip-path="url(#d888c2c6bc)"><g clip-path="url(#5d57d6dc29)"><g transform="matrix(1, 0, 0, 1, 22, 86)"><g clip-path="url(#da4423c81d)"><g clip-path="url(#e36f26c4f5)"><g clip-path="url(#4007f87e5e)"><g clip-path="url(#6a2a98680f)"><path fill="#ffffff" d="M 0.96875 45.410156 L -22.019531 22.425781 L -0.0078125 0.414062 L 22.980469 23.402344 Z M 0.96875 45.410156 " fill-opacity="1" fill-rule="nonzero"/></g></g></g></g></g></g></g></g><g clip-path="url(#c014c1974e)"><g clip-path="url(#06e1d3ebfa)"><path fill="#ffffff" d="M 9.636719 59.652344 L 84.636719 59.652344 L 84.636719 121.902344 L 9.636719 121.902344 Z M 9.636719 59.652344 " fill-opacity="1" fill-rule="nonzero"/></g></g><g clip-path="url(#922abcf36a)"><g clip-path="url(#d5ef8e3541)"><path stroke-linecap="butt" transform="matrix(0.75, 0, 0, 0.75, 27.090563, 64.635911)" fill="none" stroke-linejoin="miter" d="M 34.811543 0.00107765 C 15.587584 0.00107765 -0.00095897 15.646912 -0.00095897 34.943788 C -0.00095897 54.245873 15.587584 69.886499 34.811543 69.886499 C 54.040711 69.886499 69.624045 54.245873 69.624045 34.943788 C 69.624045 15.646912 54.040711 0.00107765 34.811543 0.00107765 Z M 34.811543 0.00107765 " stroke="#000000" stroke-width="20" stroke-opacity="1" stroke-miterlimit="4"/></g></g><g clip-path="url(#17a7ec8a7d)"><g clip-path="url(#274e9e88bc)"><g transform="matrix(1, 0, 0, 1, 15, 77)"><g clip-path="url(#8088b6927c)"><g clip-path="url(#bd442d9c1d)"><g clip-path="url(#3ca0a038f1)"><path fill="#000000" d="M 0.140625 0.359375 L 7.492188 0.359375 L 7.492188 40.046875 L 0.140625 40.046875 Z M 0.140625 0.359375 " fill-opacity="1" fill-rule="nonzero"/></g></g></g></g></g></g><g clip-path="url(#efefaaf5c9)"><g clip-path="url(#0b24630056)"><g transform="matrix(1, 0, 0, 1, 15, 64)"><g clip-path="url(#672850578b)"><g clip-path="url(#d454019fdb)"><g clip-path="url(#b02482a5e5)"><path fill="#000000" d="M 0.140625 0.636719 L 8.164062 0.636719 L 8.164062 8.65625 L 0.140625 8.65625 Z M 0.140625 0.636719 " fill-opacity="1" fill-rule="nonzero"/></g></g></g></g></g></g></svg>